Coordinates
version=1
nRows=20
nColumns=34
inDegrees=yes

Units are S.I. units (second, meters, Newtons, ...)
If the header above contains a line with 'inDegrees', this indicates whether rotational values are in degrees (yes) or radians (no).

endheader
time	pelvis_tilt	pelvis_list	pelvis_rotation	pelvis_tx	pelvis_ty	pelvis_tz	hip_flexion_r	hip_adduction_r	hip_rotation_r	knee_angle_r	ankle_angle_r	subtalar_angle_r	mtp_angle_r	hip_flexion_l	hip_adduction_l	hip_rotation_l	knee_angle_l	ankle_angle_l	subtalar_angle_l	mtp_angle_l	lumbar_extension	lumbar_bending	lumbar_rotation	arm_flex_r	arm_add_r	arm_rot_r	elbow_flex_r	pro_sup_r	arm_flex_l	arm_add_l	arm_rot_l	elbow_flex_l	pro_sup_l
      0.00000000	     -2.36801344	     -0.83445939	     -5.08887031	      1.78290806	      0.88021099	     -0.04050546	      2.05416747	     -4.67621288	     -4.45990440	      6.31544894	      1.82362813	    -16.12238452	      0.00000000	     -0.73368076	     -5.72181594	     -2.89363893	      4.42785556	      8.30600962	     -6.05559728	      0.00000000	     -6.50137952	      2.43264726	     -3.10103731	     13.01133929	     -8.36835167	     43.64769303	     82.21832050	     95.05363397	      1.75148982	     -7.43643416	     28.43031620	     80.94828496	     91.25312167
      0.01666670	     -3.76486710	     -0.51449025	     -4.82271529	      1.78357987	      0.87991794	     -0.04100277	      3.80528833	     -4.70388176	     -3.78358457	      6.62861582	      5.48933624	    -14.02154318	      0.00000000	      1.51975868	     -5.26012991	     -2.30034305	      4.44936237	      9.21247390	     -4.77159106	      0.00000000	     -4.13356526	      2.52049767	     -2.24275798	     10.85267594	     -8.35823070	     40.78151785	     82.01018474	     93.93326901	      2.22720827	     -7.90670230	     30.07286187	     79.85851150	     89.82331856
      0.03333330	     -3.86913896	      0.11258822	     -4.84444470	      1.78285911	      0.87989761	     -0.04018969	      3.69830376	     -5.39974004	     -3.81122711	      5.78206740	      5.41307286	    -14.02086423	      0.00000000	      1.60012811	     -4.77774040	     -2.31417276	      4.06437257	      8.85543057	     -4.62219147	      0.00000000	     -4.07820701	      1.71611748	     -1.83582751	     10.61600505	     -8.10617904	     40.93973491	     81.75724515	     93.94303833	      2.61015946	     -8.39069394	     29.87483500	     79.82902364	     89.72218811
      0.05000000	     -3.26648443	      0.51464304	     -4.79976755	      1.78272951	      0.88098792	     -0.03962494	      2.79768940	     -5.94366355	     -3.49857726	      5.22839307	      5.41964969	    -14.22110099	      0.00000000	      0.32554919	     -4.28777349	     -2.00557801	      2.92366020	      8.05474906	     -5.07542013	      0.00000000	     -4.62980484	      1.14369768	     -1.23617773	     10.53100995	     -7.82572488	     41.03804527	     80.85475795	     94.02527101	      3.25934384	     -8.65387529	     30.30135138	     79.23128910	     89.55461729
      0.06666670	     -2.74553497	      0.61518731	     -4.69020605	      1.78299534	      0.88176658	     -0.03946621	      1.89157896	     -6.03023632	     -3.16675513	      4.63880084	      5.32770893	    -14.73356855	      0.00000000	     -0.62885405	     -4.10941878	     -1.31497049	      2.18436118	      7.72430696	     -5.81837535	      0.00000000	     -5.22100139	      0.94386083	     -0.90339766	     10.56780835	     -7.90928033	     41.53709597	     81.22554833	     94.16920357	      3.89614000	     -8.76972722	     31.16566821	     78.82856446	     89.52305829
      0.08333330	     -2.35290727	      0.68050380	     -4.60407585	      1.78314112	      0.88310348	     -0.03944808	      1.23554077	     -6.03524782	     -2.80168511	      4.25011935	      5.26120698	    -15.31051418	      0.00000000	     -1.27809186	     -3.97177835	     -0.71677275	      1.75013461	      7.45820960	     -6.51257247	      0.00000000	     -5.68757238	      0.80298970	     -0.60421910	     10.60664650	     -8.02624017	     41.94755833	     81.86368123	     94.27799663	      4.42112092	     -8.89525639	     32.02008915	     78.71020758	     89.57924202
      0.10000000	     -2.33007077	      0.71136267	     -4.51428560	      1.78311147	      0.88364238	     -0.03964124	      1.12008025	     -6.02731815	     -2.73884538	      4.13497063	      5.32780821	    -15.36114204	      0.00000000	     -1.31700451	     -3.91856223	     -0.63035337	      1.71326517	      7.45279110	     -6.52185107	      0.00000000	     -5.58323957	      0.79284859	     -0.50488504	     10.63624688	     -7.86560874	     42.02586039	     81.96830293	     94.28474107	      4.49367863	     -8.87156146	     32.04814382	     78.73009253	     89.58302383
      0.11666670	     -1.72732606	      0.70311568	     -4.44174472	      1.78298133	      0.88439165	     -0.03977317	      0.15355789	     -5.99229370	     -2.38598616	      3.59560380	      4.94398739	    -16.26844792	      0.00000000	     -2.16932260	     -3.83723621	      0.11931915	      1.33772386	      6.98409423	     -7.37989988	      0.00000000	     -6.32875861	      0.71028679	     -0.40732510	     10.88678935	     -8.30950521	     42.75910279	     83.00956952	     94.34005587	      5.19651217	     -9.03428502	     32.97052086	     78.39654180	     89.66393432
      0.13333330	     -1.73504764	      0.71710591	     -4.43478593	      1.78309237	      0.88412379	     -0.03966159	      0.15786075	     -5.96912297	     -2.38348642	      3.58699687	      4.94624417	    -16.27043405	      0.00000000	     -2.18450858	     -3.81818784	      0.12095037	      1.34764375	      6.98018795	     -7.38006933	      0.00000000	     -6.32816802	      0.71291327	     -0.40603306	     10.89080455	     -8.31429179	     42.75695647	     83.01095544	     94.33988264	      5.20059994	     -9.03813779	     32.96948146	     78.39595254	     89.66386067
      0.15000000	     -1.30544371	      0.70966204	     -4.33152679	      1.78301702	      0.88429259	     -0.03961264	     -0.60151506	     -5.94549631	     -2.02937574	      3.07584498	      4.51635169	    -17.15817707	      0.00000000	     -2.74769901	     -3.78311390	      0.66751072	      1.14593567	      6.31902748	     -8.11603597	      0.00000000	     -6.83373820	      0.72300583	     -0.31872210	     11.06306077	     -8.80132021	     42.79852639	     83.87548820	     94.29573637	      5.70681304	     -9.24078702	     33.34637500	     77.96847058	     89.64073712
      0.16666670	     -1.30633294	      0.71960838	     -4.32946095	      1.78279735	      0.88433889	     -0.03950495	     -0.59550644	     -5.93199949	     -2.02759080	      3.07004033	      4.51655317	    -17.15958639	      0.00000000	     -2.75643745	     -3.77616125	      0.66862800	      1.15226886	      6.31540934	     -8.11612856	      0.00000000	     -6.83427326	      0.72463833	     -0.32046240	     11.06153219	     -8.80937831	     42.79672923	     83.87495971	     94.29547056	      5.70987720	     -9.24539999	     33.34493819	     77.96763485	     89.64045208
      0.18333330	     -1.30658907	      0.70984181	     -4.38016221	      1.78232798	      0.88486266	     -0.03947525	     -0.61198345	     -5.90674782	     -2.00450117	      2.95880154	      4.52535886	    -17.22426088	      0.00000000	     -2.75199753	     -3.78823370	      0.72530371	      1.17510356	      6.19475723	     -8.09790381	      0.00000000	     -6.89682765	      0.75345091	     -0.33712296	     11.01076109	     -9.01382854	     42.77473802	     83.86843185	     94.29002380	      5.79900647	     -9.45411972	     33.26927918	     77.91223031	     89.63106178
      0.20000000	     -1.06184813	      0.59842057	     -4.19773725	      1.78197270	      0.88589291	     -0.03979949	     -1.11009327	     -5.76016794	     -1.82018957	      2.54895653	      4.02189224	    -17.98809125	      0.00000000	     -3.13531189	     -3.90240174	      1.05725513	      0.82855135	      5.45181431	     -8.45805876	      0.00000000	     -7.26774738	      0.88990168	     -0.24045794	     10.93577078	     -9.37170280	     42.90130187	     84.46950294	     94.22056461	      6.09120061	     -9.46145565	     33.39017922	     77.61917321	     89.54975028
      0.21666670	     -1.05527278	      0.58070016	     -4.21796119	      1.78177402	      0.88664246	     -0.03984500	     -1.08408191	     -5.73024587	     -1.76694486	      2.52456166	      3.97303018	    -18.01468801	      0.00000000	     -3.13102448	     -3.92168331	      1.12253373	      0.80186876	      5.44624672	     -8.47532480	      0.00000000	     -7.34915597	      0.92078821	     -0.18770331	     10.94052683	     -9.50301731	     42.86059315	     84.44203947	     94.20966432	      6.17153078	     -9.68150242	     33.31026683	     77.56912578	     89.53678497
      0.23333330	     -1.04575512	      0.57949379	     -4.21631648	      1.78200838	      0.88684072	     -0.03983544	     -1.07846032	     -5.72914250	     -1.76613294	      2.52152185	      3.97259489	    -18.01494234	      0.00000000	     -3.12801656	     -3.92136037	      1.12310479	      0.79988793	      5.44570909	     -8.47523473	      0.00000000	     -7.34947987	      0.92108727	     -0.18745813	     10.94075097	     -9.50405119	     42.86017930	     84.44193676	     94.20955558	      6.17218969	     -9.68247328	     33.30978944	     77.56888524	     89.53667828
      0.25000000	     -1.03415011	      0.57659883	     -4.21302932	      1.78227538	      0.88649897	     -0.03974503	     -1.07153737	     -5.72727563	     -1.76488171	      2.51742766	      3.97186098	    -18.01496264	      0.00000000	     -3.12555810	     -3.91971234	      1.12399196	      0.79780515	      5.44459051	     -8.47468507	      0.00000000	     -7.35061877	      0.92168478	     -0.18722283	     10.94101224	     -9.50602098	     42.85949872	     84.44152655	     94.20941811	      6.17315352	     -9.68431342	     33.30885952	     77.56831236	     89.53653873
      0.26666670	     -0.55615372	      0.37625198	     -4.04943005	      1.78254374	      0.88715284	     -0.03967793	     -1.93629901	     -5.48486025	     -1.30785894	      1.90045779	      2.89026823	    -19.04752778	      0.00000000	     -3.88457550	     -4.12891712	      1.55217666	      0.29694494	      4.73020264	     -8.77043736	      0.00000000	     -7.96703506	      1.13084924	     -0.11996806	     10.85502654	     -9.85821889	     42.46037044	     84.73433288	     93.96206877	      6.56315004	     -9.83483103	     33.11495722	     77.13483667	     89.33738188
      0.28333330	     -0.55638891	      0.37761646	     -4.04751839	      1.78277408	      0.88765418	     -0.03963437	     -1.93255925	     -5.48638719	     -1.30699978	      1.89824171	      2.89059393	    -19.04799346	      0.00000000	     -3.88628826	     -4.13222939	      1.55281644	      0.29790085	      4.72972200	     -8.77014262	      0.00000000	     -7.96728517	      1.13111219	     -0.11960803	     10.85549054	     -9.85856889	     42.45997812	     84.73441799	     93.96189278	      6.56423002	     -9.83550086	     33.11445756	     77.13501337	     89.33723213
      0.30000000	     -0.60209588	      0.33759268	     -4.00287487	      1.78292917	      0.88811889	     -0.03956229	     -1.96633275	     -5.41294153	     -1.21297287	      1.76129884	      2.90798740	    -19.09646417	      0.00000000	     -3.88957040	     -4.22216475	      1.66965394	      0.23310270	      4.63438358	     -8.68148638	      0.00000000	     -7.95762640	      1.14544822	     -0.07342548	     10.81302224	     -9.90987978	     42.43186265	     84.72540337	     93.93913202	      6.69696963	    -10.03497445	     33.00454747	     77.12246758	     89.31526143
      0.31666670	     -0.60627685	      0.34173446	     -4.00255833	      1.78279495	      0.88835024	     -0.03977507	     -1.96589133	     -5.41282180	     -1.21281548	      1.76009775	      2.90790657	    -19.09697581	      0.00000000	     -3.89452698	     -4.22598392	      1.66983677	      0.23471929	      4.63385782	     -8.68122936	      0.00000000	     -7.95692948	      1.14550246	     -0.07341244	     10.81221399	     -9.90958864	     42.43193702	     84.72550326	     93.93897200	      6.69726565	    -10.03539837	     33.00427714	     77.12250992	     89.31512662
